<svg width="587" height="798" viewBox="0 0 587 798" fill="none" xmlns="http://www.w3.org/2000/svg">
<path d="M241.293 -10L317.5 78.3799L0.5 153" stroke="#202027" stroke-linecap="round"/>
<path d="M708.182 48.4061C717.611 51.031 980.016 161.965 980.016 161.965L701.611 191.848L877.494 417.66L629.536 263.412L604.272 524.856L534.384 249.531L301.438 380.493L461.905 188.266L177.13 175.289L444.803 95.0267L245.904 -134.041L525.536 -2.49639L589.531 -256.31L618.268 -1.9517L872.98 -177.398L708.182 48.4061Z" fill="#BCEC30" stroke="#202027" stroke-miterlimit="10" stroke-linecap="round"/>
<path d="M231.582 254H355.5L213.5 433" stroke="#202027" stroke-linecap="round"/>
<path d="M371.5 458.046L485.26 379L591.382 797" stroke="#202027" stroke-linecap="round"/>
<path d="M449.659 468L393.5 526.765L473.5 594L449.659 468Z" fill="#BCEC30" stroke="#202027" stroke-linecap="round"/>
<path d="M491.5 663L525.5 787" stroke="#202027" stroke-linecap="round"/>
</svg>
