<svg width="458" height="567" viewBox="0 0 458 567" fill="none" xmlns="http://www.w3.org/2000/svg">
<path d="M311.161 184.877L311.375 185.435L311.886 185.126L479.433 83.8167L380.124 252.557L379.822 253.073L380.382 253.28L564.052 321.108L370.208 348.674L369.616 348.758L369.804 349.326L431.289 535.215L288.879 400.849L288.444 400.439L288.117 400.94L181.119 564.91L197.378 369.793L197.429 369.197L196.833 369.254L1.92162 387.833L164.61 278.892L165.107 278.56L164.691 278.129L28.6394 137.326L215.247 196.597L215.817 196.778L215.894 196.186L241.151 2.02592L311.161 184.877Z" stroke="#BCEC30"/>
</svg>
